<svg width="1190" height="1006" viewBox="0 0 1190 1006" fill="none" xmlns="http://www.w3.org/2000/svg">
<path d="M839.864 119.167C907.984 122.752 978.084 117.583 1046.32 120.399C1057.48 122.353 1065.88 131.539 1066.16 143.039C1067.24 187.214 1065.71 230.698 1066.35 275.02C1066.62 293.466 1041.61 319.806 1032.55 336.043C1030.87 339.049 1026.2 345.918 1024.15 348.302C992.494 395.447 959.364 442.831 928.464 490.286C911.914 515.766 895.064 541.056 877.914 566.146C875.434 569.816 860.544 592.406 858.404 594.676L857.074 591.776C849.624 589.286 854.254 587.376 850.874 588.376C851.414 589.936 851.714 590.856 852.404 592.366C849.954 604.596 844.684 602.626 838.694 612.006C835.614 616.836 838.504 624.906 829.924 626.936C828.984 629.656 828.084 632.366 827.204 635.096C824.404 634.926 824.714 634.486 822.044 632.546L822.174 633.466L822.384 634.966C822.894 638.066 823.404 639.326 822.194 642.396C817.584 645.266 815.394 644.536 814.124 647.746C815.854 649.766 815.764 648.856 815.834 650.776C813.584 652.656 811.544 654.266 809.214 656.046C809.984 657.426 809.414 656.836 811.134 657.616C809.994 660.666 810.194 660.546 807.714 662.616L806.114 662.386L807.354 659.516L804.674 660.326L804.384 662.516L806.274 664.856C801.214 669.066 804.344 663.426 799.894 668.316C800.874 672.986 801.314 674.246 797.994 678.186C792.104 685.186 786.964 690.666 783.404 699.256C781.644 698.206 782.394 698.766 781.094 697.666L780.374 698.986C781.784 701.316 782.334 701.176 782.134 703.026C778.424 704.156 773.574 705.256 770.624 707.536C769.834 711.296 768.114 716.876 764.704 719.026C748.774 712.346 744.924 739.566 733.114 738.146C724.574 737.126 715.444 743.736 709.274 749.056C707.184 748.446 707.494 748.546 705.844 747.236C701.424 743.716 693.244 745.576 688.014 744.876C683.264 744.246 687.054 742.126 683.034 741.766C679.494 744.866 680.874 744.586 676.994 744.806L675.324 743.746C676.094 741.916 676.774 740.106 677.314 738.196C675.404 735.876 676.544 736.816 673.494 735.866L672.554 736.756L672.844 741.836C670.614 743.396 671.794 742.756 667.764 742.086L667.894 740.466C670.164 740.136 669.384 740.126 671.574 740.516L671.944 738.806C669.434 736.926 669.294 737.936 664.774 738.056L663.684 741.926C660.384 743.506 645.644 742.896 641.694 742.056L639.854 740.536L639.834 738.366L641.704 737.196L641.894 735.846C633.174 731.706 636.774 740.446 630.574 729.356C630.394 728.906 630.264 727.116 630.204 726.546C627.024 726.106 625.604 725.566 622.714 726.936C622.494 728.846 622.404 727.876 623.074 729.836C618.994 729.516 615.994 727.566 611.804 728.386L610.624 730.566C610.834 736.676 609.824 734.426 614.534 738.836L615.064 740.786L615.354 740.036L614.694 740.676C609.404 735.636 605.014 729.766 598.364 730.706C596.744 730.936 596.844 730.426 595.194 728.966C595.504 724.576 595.724 721.456 593.484 717.686C589.314 715.936 588.874 718.016 584.904 714.586C585.504 712.366 585.254 713.526 585.614 711.096L582.764 709.196C578.524 709.796 579.004 710.996 574.834 714.326C571.094 714.226 572.924 714.736 569.491 711.836C568.234 708.916 568.807 707.136 569.177 703.916L569.342 702.556L566.688 703.946L565.732 703.446C568.654 699.436 569.572 696.366 571.844 693.086C578.714 683.176 583.784 676.266 589.204 665.336C590.394 664.886 591.194 663.476 591.994 662.526L593.754 662.376C600.604 657.756 610.304 640.196 616.794 634.496C617.344 634.266 617.894 634.046 618.454 633.816C617.064 630.566 616.854 631.866 617.764 629.496C619.314 631.026 618.454 630.406 620.304 631.366C621.734 628.626 621.454 626.036 621.534 622.886L622.684 622.806C624.674 624.166 624.574 624.256 626.894 624.756C625.174 616.556 624.584 620.316 629.904 612.356C632.764 608.086 637.124 601.946 638.164 596.926L638.994 596.816C640.404 595.616 641.264 595.176 642.894 594.316C641.864 591.856 642.254 593.096 641.684 590.606C645.174 586.556 646.684 589.926 650.704 584.796C650.064 581.176 649.014 578.676 651.744 575.896L654.624 577.476L655.334 576.916C653.094 574.666 653.624 575.676 652.514 572.896C655.234 570.246 660.314 568.576 664.294 565.786C662.114 557.956 665.034 556.706 670.404 551.316C672.194 541.596 673.004 539.246 682.344 537.036C684.454 531.776 680.304 529.066 685.654 526.486L687.864 528.126L688.984 527.336C688.984 522.246 689.624 521.266 691.404 516.326L692.614 518.256L693.434 518.376C694.364 514.856 692.264 511.636 690.564 508.156C732.214 446.956 774.494 381.699 815.204 319.501C817.634 314.266 825.104 304.078 828.344 298.787C839.584 280.416 855.804 259.681 866.194 241.346C870.074 236.346 874.004 230.492 877.664 225.268C868.404 208.922 859.854 192.767 850.144 176.583C840.184 171.89 816.504 161.383 806.584 158.555L806.454 157.708C811.864 156.245 831.824 126.902 839.864 119.167Z" fill="#04A2F3"/>
<path d="M839.865 119.167C907.985 122.752 978.085 117.583 1046.33 120.399C1057.49 122.353 1065.89 131.539 1066.17 143.039C1067.25 187.214 1065.72 230.698 1066.36 275.02C1066.63 293.466 1041.62 319.806 1032.56 336.043C1030.88 339.049 1026.21 345.918 1024.16 348.302L1021.3 346.553C1022.65 336.72 1044.19 315.831 1047.67 305.496C1049.66 299.588 1062.48 290.103 1059.02 283.106L1059.86 282.021L1062.02 282.675C1063.01 277.115 1062.38 260.335 1062.43 253.882C1062.57 236.417 1063.29 218.882 1062.33 201.475C1056.85 200.635 1063.43 202.998 1056.92 205.492C1054.32 201.819 1048.78 191.939 1044.04 193.439L1045.92 195.906L1045.45 198.274L1043.74 199.407L1040.57 198.616L1039.04 195.679C1038.68 197.956 1037.62 201.922 1037.05 204.302C1035.2 205.561 1025.1 206.772 1021.34 208.138L1019.57 206.928L1018.85 207.374L1020.08 209.824L1019 210.617C1016.39 208.783 1014.65 207.166 1011.54 206.607L1007.89 210.596C1007.16 209.572 1006.59 208.591 1006.02 207.477C1006.01 209.594 1006.06 208.452 1005.85 210.901C1002.33 211.954 1000.47 210.868 997.965 210.932C994.255 211.027 1000.03 212.93 994.895 215.059L994.115 214.103L994.945 211.26C992.305 209.35 991.255 209.493 988.035 209.129C987.715 211.485 988.705 211.768 988.235 214.869L986.525 215.353C983.695 214.26 981.665 212.866 979.085 211.288C971.115 212.483 963.605 212.655 955.645 213.22L955.095 211.926L957.165 208.66C955.345 208.723 955.795 208.965 953.785 210.37L953.295 208.081L951.235 208.512C949.245 211.167 948.595 212.059 946.195 214.475C943.215 215.074 943.205 214.701 940.325 213.444C937.645 208.746 940.875 213.233 940.295 208.446L937.475 208.507C938.865 206.474 937.985 207.255 940.415 206.462C931.605 209.835 932.625 204.08 920.625 205.266C915.095 209.271 921.075 205.796 919.595 210.492L918.145 210.372C915.715 208.374 915.265 207.641 912.225 206.886C908.805 207.976 904.795 212.57 901.705 215.316C900.845 213.343 900.225 212.253 899.145 210.381L898.025 210.237L897.335 213.511L895.905 213.396L895.105 210.673L894.265 210.872L895.205 216.231L894.185 217.434L892.695 216.415L890.305 217.186C888.245 214.529 887.435 214.682 886.205 211.649L886.125 211.66L885.005 214.129L886.535 212.687L886.945 213.769C882.715 215.947 883.635 209.708 878.105 208.85C877.595 212.786 880.145 217.386 882.125 220.752L882.685 221.687C878.765 231.422 857.785 264.307 851.505 272.169L850.505 273.413L852.885 274.801L852.815 276.388C851.035 279.232 851.215 279.146 848.555 281.142L847.135 279.006L846.125 279.358L845.845 281.717C847.475 283.419 846.935 282.533 847.695 284.233C845.055 284.521 844.935 284.687 842.435 285.708C839.905 298.336 829.265 295.217 829.635 313.714L828.385 314.021L826.595 311.038C825.595 311.807 819.515 321.525 817.285 324.246L816.285 323.656C816.225 321.376 816.145 321.563 815.205 319.501C817.635 314.266 825.105 304.078 828.345 298.787C839.585 280.416 855.805 259.681 866.195 241.346C870.075 236.346 874.005 230.492 877.665 225.268C868.405 208.922 859.855 192.767 850.145 176.583C840.185 171.89 816.505 161.383 806.585 158.555L806.455 157.708C811.865 156.245 831.825 126.902 839.865 119.167Z" fill="#1DEEEC"/>
<path d="M630.574 729.356C631.684 726.886 630.764 727.646 633.044 726.656C635.964 727.806 635.744 727.976 637.594 730.606L636.744 732.506C633.564 731.996 632.834 731.726 630.574 729.356Z" fill="#015FE0"/>
<path d="M604.855 720.786C608.135 720.696 608.375 720.886 611.455 721.676L612.215 723.206L610.505 725.516L608.855 724.816C607.585 725.696 608.425 725.266 606.125 726.006L606.245 726.136C605.005 723.616 605.205 723.896 603.265 721.826L604.855 720.786Z" fill="#015FE0"/>
<path d="M123.649 277.551C155.299 277.535 199.834 282.566 232.326 284.664L311.821 289.687C327.673 290.736 343.543 291.952 359.348 293.563C363.022 293.938 362.921 294.64 365.679 296.468C383.028 320.246 411.019 365.29 426.28 390.979C431.265 397.13 442.704 416.276 447.513 423.838C461.993 446.261 476.328 468.776 490.518 491.386C524.995 546.066 561.294 600.086 594.594 655.306C625.704 607.716 660.864 556.036 690.564 508.156C692.264 511.636 694.364 514.856 693.434 518.376L692.614 518.256L691.404 516.326C689.624 521.266 688.984 522.246 688.984 527.336L687.864 528.126L685.654 526.486C680.304 529.066 684.454 531.776 682.344 537.036C673.004 539.246 672.194 541.596 670.404 551.316C665.034 556.706 662.114 557.956 664.294 565.786C660.314 568.576 655.234 570.246 652.514 572.896C653.624 575.676 653.094 574.666 655.334 576.916L654.624 577.476L651.744 575.896C649.014 578.676 650.064 581.176 650.704 584.796C646.684 589.926 645.174 586.556 641.684 590.606C642.254 593.096 641.864 591.856 642.894 594.316C641.264 595.176 640.404 595.616 638.994 596.816L638.164 596.926C637.124 601.946 632.764 608.086 629.904 612.356C624.584 620.316 625.174 616.556 626.894 624.756C624.574 624.256 624.674 624.166 622.684 622.806L621.534 622.886C621.454 626.036 621.734 628.626 620.304 631.366C618.454 630.406 619.314 631.026 617.764 629.496C616.854 631.866 617.064 630.566 618.454 633.816C617.894 634.046 617.344 634.266 616.794 634.496C610.304 640.196 600.604 657.756 593.754 662.376L591.994 662.526C591.194 663.476 590.394 664.886 589.204 665.336C584.344 669.166 570.534 691.756 566.401 698.176C548.56 726.546 529.772 754.306 510.069 781.416C503.352 790.856 490.69 809.906 482.524 816.376C481.347 811.946 482.531 809.606 481.547 805.776C479.238 806.526 479.397 806.456 477.849 808.336L472.7 808.486C467.702 803.196 453.743 779.576 448.766 772.216C420.669 730.456 392.828 688.516 365.245 646.416L140.351 306.293C135.423 299.059 125.547 285.35 123.649 277.551Z" fill="url(#paint0_linear_198_25)"/>
<path d="M123.649 277.551C155.299 277.535 199.834 282.566 232.326 284.664L311.821 289.687C327.673 290.736 343.543 291.952 359.348 293.563C363.022 293.938 362.921 294.64 365.679 296.468C383.028 320.246 411.019 365.29 426.28 390.979C425.951 390.929 425.621 390.879 425.292 390.829C352.433 362.471 277.197 338.11 203.574 311.846C189.823 306.94 156.72 294.298 145.411 293.475L145.081 294.653L148.049 299.312L147.445 301.028C145.086 301.249 144.559 300.336 142.016 298.91C140.627 300.937 143.267 300.908 140.351 306.293C135.423 299.059 125.547 285.35 123.649 277.551Z" fill="#015FE0"/>
<path d="M18.7473 344.371C15.1853 340.619 4.49933 324.13 2.51333 318.573C1.22833 314.977 0.535333 309.343 0.522333 305.369C0.347333 251.752 0.424343 197.97 0.407343 144.368L0.335321 72.1362C0.316321 55.3182 -1.77068 33.0762 4.70532 17.4392C6.84732 12.2682 19.3753 2.22721 24.5563 1.81821C54.8743 -0.577785 86.4163 0.460225 117.033 0.341225L313.359 0.280251L380.605 0.381203C386.947 0.365203 414.243 -0.3328 418.099 1.0532C443.795 10.2852 469.216 21.8302 494.664 31.9322C537.84 48.5862 580.864 65.6392 623.724 83.0892C637.174 88.4212 677.004 103.304 687.374 109.405C693.544 110.329 736.584 126.917 741.904 130.196C761.694 138.53 788.074 148.164 806.454 157.708L806.584 158.555C816.504 161.383 840.184 171.89 850.144 176.583C859.854 192.767 868.404 208.922 877.664 225.268C874.004 230.492 870.074 236.346 866.194 241.346C832.024 225.309 792.344 210.084 757.214 195.838C641.364 151.262 524.204 99.5743 407.362 57.0873C402.229 55.2213 372.022 56.1113 364.914 56.1393L287.704 56.3772L135.9 56.2232C111.634 56.2292 80.6003 55.4772 56.8443 56.6922C56.0733 77.0592 56.6933 99.4192 56.6583 119.961L56.5173 236.467C56.5893 256.562 55.8703 284.335 57.6213 304.07C58.0503 308.907 72.5433 328.737 76.2863 334.075C89.5823 354.559 103.991 374.983 117.561 395.371L266.332 618.776L261.35 619.116L260.937 620.366C262.651 621.806 268.091 626.016 268.289 627.646C269.349 636.426 278.371 644.416 283.492 652.436C290.692 663.716 299.597 675.356 306.367 687.126C308.107 689.986 316.297 698.736 315.438 700.796C312.592 701.296 313.458 700.586 311.867 702.206C313.196 703.426 316.509 707.946 317.79 709.546L318.682 709.136C320.046 708.526 319.496 708.756 321.143 708.156L321.573 709.536L320.253 711.046C322.522 712.116 321.345 711.816 323.773 711.966L324.485 712.906L323.29 713.256C321.813 713.686 322.377 713.456 321.318 713.986C322.168 715.536 327.956 718.766 330.585 721.656C331.856 725.846 332.221 731.706 335.511 733.576C352.298 743.146 337.437 750.696 344.89 759.176C347.674 756.496 344.333 754.966 347.95 753.366C355.069 756.086 350.005 761.036 354.333 765.756L355.373 761.836C357.662 762.426 356.72 761.796 358.122 763.846C355.048 770.756 352.086 763.916 354.142 775.896C350.354 782.536 342.335 777.956 342.87 785.796C336.011 784.636 334.489 776.186 332.813 770.156C325.916 768.126 314.546 765.176 307.505 765.276L304.517 767.796C311.624 775.846 313.437 778.046 312.887 789.296C279.398 738.566 241.508 684.646 209.772 633.506C204.211 628.716 166.117 568.256 159.544 558.296L76.4303 432.569C57.3313 403.802 36.8233 373.784 18.7473 344.371Z" fill="url(#paint1_linear_198_25)"/>
<path d="M18.7481 344.371L24.5681 345.964L24.9001 344.905C16.3971 335.357 16.8581 329.785 8.64808 321.836C6.93908 320.182 7.48708 316.987 7.31208 313.755L5.09907 314.87C4.01407 307.162 4.44608 292.173 4.47608 283.9L4.64106 232.495C4.47306 205.841 4.51506 179.187 4.76706 152.534C4.79306 140.377 3.07006 120.077 6.85706 109.604L8.37406 109.752L10.9901 107.144C17.1641 107.185 30.4861 121.387 33.5821 126.929C34.1131 127.879 32.0001 134.464 34.0521 137.957C39.4661 138.193 46.2481 133.991 51.6961 133.802C55.2101 133.68 53.1531 151.378 53.1571 154.993C53.1991 188.012 52.2931 220.818 53.2551 253.846C53.7331 270.214 51.2061 287.871 52.6511 304.352C52.9191 307.26 59.5981 316.186 61.6571 319.054C61.5551 322.058 60.7301 321.673 57.7301 324.815C59.7821 325.012 62.1601 325.24 64.8631 325.499C66.8951 328.624 71.6641 333.968 74.0951 336.695L75.5181 336.768L76.2871 334.075C89.5831 354.559 103.992 374.983 117.562 395.371L266.333 618.776L261.351 619.116L260.938 620.366C262.652 621.806 268.092 626.016 268.29 627.646C269.35 636.426 278.372 644.416 283.493 652.436C290.693 663.716 299.598 675.356 306.368 687.126C308.108 689.986 316.298 698.736 315.439 700.796C312.593 701.296 313.459 700.586 311.868 702.206C313.197 703.426 316.51 707.946 317.791 709.546L318.683 709.136C320.047 708.526 319.497 708.756 321.144 708.156L321.574 709.536L320.254 711.046C322.523 712.116 321.346 711.816 323.774 711.966L324.486 712.906L323.291 713.256C321.814 713.686 322.378 713.456 321.319 713.986C322.169 715.536 327.957 718.766 330.586 721.656C331.857 725.846 332.222 731.706 335.512 733.576C352.299 743.146 337.438 750.696 344.891 759.176C347.675 756.496 344.334 754.966 347.951 753.366C355.07 756.086 350.006 761.036 354.334 765.756L355.374 761.836C357.663 762.426 356.721 761.796 358.123 763.846C355.049 770.756 352.087 763.916 354.143 775.896C350.355 782.536 342.336 777.956 342.871 785.796C336.012 784.636 334.49 776.186 332.814 770.156C325.917 768.126 314.547 765.176 307.506 765.276L304.518 767.796C311.625 775.846 313.438 778.046 312.888 789.296C279.399 738.566 241.509 684.646 209.773 633.506C204.212 628.716 166.118 568.256 159.545 558.296L76.4311 432.569C57.3321 403.802 36.8241 373.784 18.7481 344.371Z" fill="#04A2F3"/>
<path d="M209.772 633.506C214.233 632.796 215.653 635.226 221.053 638.046L222.062 635.516L223.073 636.336C222.466 639.896 221.45 643.666 222.342 647.066C224.547 648.426 223.8 648.136 226.138 648.726L226.073 650.836C228.303 652.336 228.81 651.956 231.625 651.916L233.286 653.366C232.372 658.856 230.733 652.556 231.115 658.866L234.881 655.846C235.851 662.386 232.869 657.086 234.336 664.396C238.616 665.896 236.174 661.736 238.943 665.086L236.826 666.646C241.612 673.606 251.964 691.786 255.819 696.166C257.362 695.926 258.177 695.766 259.755 695.416L261.003 696.736C260.04 697.976 258.635 699.136 259.159 700.006C261.342 703.616 269.434 717.426 271.375 719.776L273.797 717.576L274.495 718.676L272.998 720.916C273.575 721.646 280.129 728.136 280.058 727.186C280.272 730.046 277.882 730.006 280.94 730.736L281.717 727.736L282.904 728.456C283.393 732.176 281.126 733.876 281.938 735.336C286.54 743.586 293.901 747.656 297.565 756.796C299.822 754.076 300.861 752.976 304.74 754.456L305.571 757.016C303.299 757.646 304.103 757.526 301.776 757.426C301.07 759.786 301.266 758.566 302.808 761.736C303.853 761.446 304.898 761.156 305.944 760.856L306.407 762.856L303.768 766.956L304.518 767.796C311.625 775.846 313.438 778.046 312.888 789.296C279.399 738.566 241.508 684.646 209.772 633.506Z" fill="#015FE0"/>
<path d="M335.863 770.206C338.847 769.866 342.455 769.316 343.717 772.746L341.203 772.556L340.897 772.456L337.524 774.336C335.508 772.656 336.367 773.706 335.863 770.206Z" fill="#015FE0"/>
<path d="M806.585 158.555C816.505 161.383 840.185 171.89 850.145 176.583C859.855 192.767 868.405 208.922 877.665 225.268C874.005 230.492 870.075 236.346 866.195 241.346C832.025 225.309 792.345 210.084 757.215 195.838C770.725 191.454 781.555 203.693 795.675 205.216L796.095 204.659C793.605 203.289 793.675 203.435 791.865 201.275L792.015 199.954C795.805 201.555 794.055 201.56 797.425 200.961C802.425 194.352 807.005 191.268 814.475 187.515C816.185 188.977 815.265 188.584 817.145 188.931C822.875 172.899 826.765 182.909 833.015 172.942L831.125 173.787C828.035 171.839 828.055 171.182 825.715 168.26C823.715 167.726 810.945 163.027 810.355 163.228C801.885 166.126 794.845 178.143 788.705 184.304C782.925 190.096 783.545 193.864 775.015 194.312L773.875 193.24L779.905 191.264C784.845 181.834 805.135 165.682 806.585 158.555Z" fill="url(#paint2_linear_198_25)"/>
<path d="M123.65 277.551C124.419 274.164 124.19 255.435 124.196 250.996L124.173 180.782C124.105 168.871 123.103 156.498 124.042 144.638C124.347 140.799 124.99 136.752 126.602 133.226C129.206 127.529 135.945 122.991 141.725 121.056C148.81 118.683 388.702 117.798 400.999 121.13C412.19 124.162 423.51 129.655 434.3 133.989L497.336 159.312C544.21 177.734 590.945 196.503 637.545 215.615C653.905 222.417 669.335 227.987 685.505 235.5C680.425 236.76 661.565 265.28 657.225 271.015C633.915 302.087 610.395 333.009 586.695 363.78C582.455 369.202 577.595 374.801 572.925 379.872C570.655 382.333 568.874 382.436 566.676 385.438C549.715 375.608 373.353 296.517 365.68 296.468C362.922 294.64 363.023 293.938 359.349 293.563C343.544 291.952 327.674 290.736 311.822 289.687L232.327 284.664C199.835 282.566 155.3 277.535 123.65 277.551Z" fill="url(#paint3_linear_198_25)"/>
<path d="M304.518 767.796L307.505 765.276C314.546 765.176 325.916 768.126 332.813 770.156C334.489 776.186 336.011 784.636 342.87 785.796C342.335 777.956 350.355 782.536 354.143 775.896C352.087 763.916 355.048 770.756 358.122 763.846C356.72 761.796 357.662 762.426 355.373 761.836L354.333 765.756C350.005 761.036 355.07 756.086 347.951 753.366C344.334 754.966 347.675 756.496 344.891 759.176C337.438 750.696 352.298 743.146 335.511 733.576C332.221 731.706 331.857 725.846 330.586 721.656C327.957 718.766 322.168 715.536 321.318 713.986C322.377 713.456 321.813 713.686 323.29 713.256L324.485 712.906L323.773 711.966C321.345 711.816 322.522 712.116 320.253 711.046L321.573 709.536L321.143 708.156C319.496 708.756 320.046 708.526 318.682 709.136L317.79 709.546C316.509 707.946 313.196 703.426 311.867 702.206C313.458 700.586 312.592 701.296 315.438 700.796C316.297 698.736 308.107 689.986 306.367 687.126C299.597 675.356 290.692 663.716 283.492 652.436C278.371 644.416 269.349 636.426 268.289 627.646C268.091 626.016 262.651 621.806 260.938 620.366L261.35 619.116L266.332 618.776L413.435 839.746C436.843 874.846 462.985 916.306 487.833 950.176C558.779 950.176 630.844 949.576 701.694 950.486L849.765 730.606C871.315 698.476 900.244 658.236 919.804 625.796L922.885 627.586L923.155 629.076L923.875 628.996C918.385 633.016 915.464 646.036 912.304 651.156C908.464 657.376 905.784 647.716 903.984 661.986C902.514 662.666 901.034 663.326 899.554 663.976C898.304 667.686 898.264 668.226 897.924 672.176C897.504 672.416 891.625 675.666 891.745 675.426C888.325 682.196 891.164 681.756 884.484 686.486L889.265 686.876L889.135 688.326C885.245 691.526 876.304 698.566 873.964 702.586C874.574 704.736 874.074 703.706 875.564 705.626C867.404 713.796 858.994 719.766 858.684 730.916L858.035 731.476C857.525 731.256 855.854 730.356 855.464 730.466C852.554 734.036 853.155 735.076 853.365 739.846L851.964 742.146C850.164 741.306 850.984 741.916 849.604 740.226C844.794 748.426 842.344 754.996 835.604 762.196C831.524 766.556 827.465 775.676 822.875 779.516C822.185 782.916 820.935 785.846 822.145 788.496C831.695 789.696 830.724 787.796 840.454 792.246C847.834 789.366 843.674 783.546 852.704 788.796C853.044 784.406 852.384 783.546 854.464 780.386C858.154 779.836 858.304 779.986 861.854 780.466C866.404 775.596 871.404 770.846 874.474 764.996L873.834 760.796L875.035 759.616C876.265 761.166 876.394 761.586 878.054 762.626C878.824 760.296 879.084 759.096 879.584 756.676C886.174 756.296 884.524 765.996 890.844 758.456L893.905 758.196C892.945 756.416 892.315 755.566 891.115 753.916L891.635 752.236L893.865 753.666C897.405 751.526 896.194 748.776 895.854 744.726L897.174 744.056C897.514 745.746 897.814 747.206 898.074 748.906L899.535 748.486L898.834 742.636L900.035 742.716L901.875 744.856C902.825 743.306 902.535 744.256 902.135 741.876L906.344 737.836C905.644 733.526 905.074 734.416 906.824 731.516L908.365 730.886L908.584 735.096C912.264 732.886 913.485 726.806 915.765 723.316C928.135 704.416 941.425 685.666 954.125 666.966C954.245 663.286 953.704 662.456 952.414 659.086L960.714 658.126C962.514 650.916 967.555 647.206 967.865 644.496L965.234 643.496L966.294 641.816C968.814 642.716 968.045 642.226 969.875 644.026C975.655 640.566 976.264 626.616 981.414 624.316C983.194 626.696 982.525 627.296 984.155 629.306C970.825 651.706 951.154 679.156 936.294 701.526C901.844 753.556 867.094 805.386 832.044 857.016L772.414 945.336C761.944 960.786 752.065 976.496 740.385 991.086C725.655 1009.48 692.854 1004.62 670.684 1004.62L576.514 1004.46L512.782 1004.62C488.404 1004.7 463.103 1009.16 446.277 987.766C432.182 969.856 420.771 950.576 408.094 931.666C388.502 902.776 369.133 873.736 349.99 844.556C339.289 828.356 324.079 804.226 312.888 789.296C313.438 778.046 311.625 775.846 304.518 767.796Z" fill="url(#paint4_linear_198_25)"/>
<path d="M1133.82 302.046C1134.73 297.657 1135.2 293.417 1136.07 288.766C1139.74 269.113 1136.46 246.778 1136.48 227.009C1136.51 207.331 1138.92 186.649 1138.28 167.02C1137.48 142.515 1136.28 118.482 1137.86 93.9482L1138.86 94.7352C1139.82 102.983 1138.6 107.934 1143.59 114.118C1142.22 114.967 1143.01 114.672 1141.19 114.869C1141.63 117.375 1142.15 117.407 1144.04 119.28L1145.17 119.15L1146.76 116.876C1149.74 121.308 1150.9 125.301 1153.82 128.772C1156.43 131.861 1157.09 127.382 1158.23 131.501L1155.18 132.4C1155.78 134.844 1168.89 143.267 1171.68 143.286C1173.57 142.562 1175.23 141.896 1177.08 141.087C1180.69 141.655 1179.22 140.866 1181.7 143.473C1181.92 147.319 1181.7 148.92 1181.27 152.795L1182.62 153.286C1185.06 150.706 1185.89 145.411 1186.47 141.811C1186.58 170.599 1186.37 199.387 1185.85 228.171C1185.58 239.755 1185.74 254.348 1186.57 265.752C1187.82 265.015 1187.34 265.011 1188.01 262.835C1188.1 276.486 1187.33 298.948 1188.53 311.582C1187.15 327.1 1148.73 380.599 1137.51 397.484L1074.22 493.586L1011.13 589.026C1003.51 600.436 992.125 618.826 984.155 629.306C982.525 627.296 983.195 626.696 981.415 624.316C976.265 626.616 975.655 640.566 969.875 644.026C968.045 642.226 968.815 642.716 966.295 641.816L965.235 643.496L967.865 644.496C967.555 647.206 962.515 650.916 960.715 658.126L952.415 659.086C953.705 662.456 954.245 663.286 954.125 666.966C941.425 685.666 928.135 704.416 915.765 723.316C913.485 726.806 912.265 732.886 908.585 735.096L908.365 730.886L906.825 731.516C905.075 734.416 905.645 733.526 906.345 737.836L902.135 741.876C902.535 744.256 902.825 743.306 901.875 744.856L900.035 742.716L898.835 742.636L899.535 748.486L898.075 748.906C897.815 747.206 897.515 745.746 897.175 744.056L895.855 744.726C896.195 748.776 897.405 751.526 893.865 753.666L891.635 752.236L891.115 753.916C892.315 755.566 892.945 756.416 893.905 758.196L890.845 758.456C884.525 765.996 886.175 756.296 879.585 756.676C879.085 759.096 878.825 760.296 878.055 762.626C876.395 761.586 876.265 761.166 875.035 759.616L873.835 760.796L874.475 764.996C871.405 770.846 866.405 775.596 861.855 780.466C858.305 779.986 858.155 779.836 854.465 780.386C852.385 783.546 853.045 784.406 852.705 788.796C843.675 783.546 847.835 789.366 840.455 792.246C830.725 787.796 831.695 789.696 822.145 788.496C820.935 785.846 822.185 782.916 822.875 779.516C827.465 775.676 831.525 766.556 835.605 762.196C842.345 754.996 844.795 748.426 849.605 740.226C850.985 741.916 850.165 741.306 851.965 742.146L853.365 739.846C853.155 735.076 852.555 734.036 855.465 730.466C855.855 730.356 857.525 731.256 858.035 731.476L858.685 730.916C858.995 719.766 867.405 713.796 875.565 705.626C874.075 703.706 874.575 704.736 873.965 702.586C876.305 698.566 885.245 691.526 889.135 688.326L889.265 686.876L884.485 686.486C891.165 681.756 888.325 682.196 891.745 675.426C891.625 675.666 897.505 672.416 897.925 672.176C898.265 668.226 898.305 667.686 899.555 663.976C901.035 663.326 902.515 662.666 903.985 661.986C905.785 647.716 908.465 657.376 912.305 651.156C915.465 646.036 918.385 633.016 923.875 628.996L923.155 629.076L922.885 627.586L919.805 625.796C937.705 598.016 957.915 568.996 976.315 541.456L1087.48 373.335C1095.23 361.447 1130.16 311.808 1133.82 302.046Z" fill="#04A2F3"/>
<path d="M1145.31 119.705C1146.77 122.171 1146.96 122.03 1146.9 124.833L1145.1 126.28C1143.71 125.679 1144.39 126.164 1143.29 124.54L1145.31 119.705Z" fill="#1DEEEC"/>
<path d="M687.375 109.405C700.945 104.258 756.915 11.9112 775.325 4.27421C790.545 -2.04079 869.925 0.497206 887.445 0.537206L1049.32 0.865209C1069.92 0.929209 1152.24 -1.7258 1165.42 2.3292C1173.47 4.8042 1182.35 11.6852 1186.12 19.2912C1188.41 23.8982 1189.11 28.7362 1189.35 33.8182C1190.34 55.2292 1189.43 76.8402 1189.43 98.2762C1189.82 140.378 1189.87 182.483 1189.57 224.587L1189.47 281.398C1189.46 287.889 1189.75 306.163 1188.53 311.582C1187.33 298.948 1188.1 276.486 1188.01 262.835C1187.34 265.011 1187.82 265.015 1186.57 265.752C1185.74 254.348 1185.58 239.755 1185.85 228.171C1186.37 199.387 1186.58 170.599 1186.47 141.811C1185.89 145.411 1185.06 150.706 1182.62 153.286L1181.27 152.795C1181.7 148.92 1181.92 147.319 1181.7 143.473C1179.22 140.866 1180.69 141.655 1177.08 141.087C1175.23 141.896 1173.57 142.562 1171.68 143.286C1168.89 143.267 1155.78 134.844 1155.18 132.4L1158.23 131.501C1157.09 127.382 1156.43 131.861 1153.82 128.772C1150.9 125.301 1149.74 121.308 1146.76 116.876L1145.17 119.15L1144.04 119.28C1142.15 117.407 1141.63 117.375 1141.19 114.869C1143.01 114.672 1142.22 114.967 1143.59 114.118C1138.6 107.934 1139.82 102.983 1138.86 94.7352L1137.86 93.9482C1136.28 118.482 1137.48 142.515 1138.28 167.02C1138.92 186.649 1136.51 207.331 1136.48 227.009C1136.46 246.778 1139.74 269.113 1136.07 288.766C1135.2 293.417 1134.73 297.657 1133.82 302.046C1132.19 282.797 1133.78 254.786 1133.35 234.712C1132.08 176.774 1135.34 114.053 1132.57 56.5152C1121.84 55.9092 1106.64 56.3262 1095.51 56.3192L1018.68 56.5223L800.035 56.2302C790.515 67.2042 778.055 85.2252 768.535 97.3642C759.935 108.33 749.985 119.681 741.905 130.196C736.585 126.917 693.545 110.329 687.375 109.405Z" fill="#1DEEEC"/>
<path d="M630.574 729.356C636.774 740.446 633.174 731.706 641.894 735.846L641.704 737.196L639.834 738.366L639.854 740.536L641.694 742.056C645.644 742.896 660.384 743.506 663.684 741.926L664.774 738.056C669.294 737.936 669.434 736.926 671.944 738.806L671.574 740.516C669.384 740.126 670.164 740.136 667.894 740.466L667.764 742.086C671.794 742.756 670.614 743.396 672.844 741.836L672.554 736.756L673.494 735.866C676.544 736.816 675.404 735.876 677.314 738.196C676.774 740.106 676.094 741.916 675.324 743.746L676.994 744.806C680.874 744.586 679.494 744.866 683.034 741.766C687.054 742.126 683.264 744.246 688.014 744.876C693.244 745.576 701.424 743.716 705.844 747.236C707.494 748.546 707.184 748.446 709.274 749.056C715.444 743.736 724.574 737.126 733.114 738.146C744.924 739.566 748.774 712.346 764.704 719.026C768.114 716.876 769.834 711.296 770.624 707.536C773.574 705.256 778.424 704.156 782.134 703.026C782.334 701.176 781.784 701.316 780.374 698.986L781.094 697.666C782.394 698.766 781.644 698.206 783.404 699.256C786.964 690.666 792.104 685.186 797.994 678.186C801.314 674.246 800.874 672.986 799.894 668.316C804.344 663.426 801.214 669.066 806.274 664.856L804.384 662.516L804.674 660.326L807.354 659.516L806.114 662.386L807.714 662.616C810.194 660.546 809.994 660.666 811.134 657.616C809.414 656.836 809.984 657.426 809.214 656.046C811.544 654.266 813.584 652.656 815.834 650.776C815.764 648.856 815.854 649.766 814.124 647.746C815.394 644.536 817.584 645.266 822.194 642.396C823.404 639.326 822.894 638.066 822.384 634.966L822.174 633.466L822.044 632.546C824.714 634.486 824.404 634.926 827.204 635.096C828.084 632.366 828.984 629.656 829.924 626.936C838.504 624.906 835.614 616.836 838.694 612.006C844.684 602.626 849.954 604.596 852.404 592.366C851.714 590.856 851.414 589.936 850.874 588.376C854.254 587.376 849.624 589.286 857.074 591.776L858.404 594.676C845.924 614.916 832.234 634.006 819.074 653.786L738.454 774.906C716.564 807.756 695.394 842.116 671.764 873.816C668.124 878.696 660.874 882.806 655.024 884.476C649.364 883.616 637.014 883.776 630.714 883.486C608.954 883.086 586.524 882.356 564.79 883.256C552.529 883.766 539.544 881.726 528.311 882.066C520.181 878.656 515.136 873.366 510.18 866.276C497.081 847.526 484.727 827.896 472.7 808.486L477.849 808.336C479.397 806.456 479.238 806.526 481.547 805.776C482.531 809.606 481.347 811.946 482.524 816.376C490.69 809.906 503.352 790.856 510.069 781.416C529.772 754.306 548.56 726.546 566.401 698.176C570.534 691.756 584.344 669.166 589.204 665.336C583.784 676.266 578.714 683.176 571.844 693.086C569.572 696.366 568.654 699.436 565.732 703.446L566.688 703.946L569.342 702.556L569.177 703.916C568.807 707.136 568.234 708.916 569.491 711.836C572.924 714.736 571.094 714.226 574.834 714.326C579.004 710.996 578.524 709.796 582.764 709.196L585.614 711.096C585.254 713.526 585.504 712.366 584.904 714.586C588.874 718.016 589.314 715.936 593.484 717.686C595.724 721.456 595.504 724.576 595.194 728.966C596.844 730.426 596.744 730.936 598.364 730.706C605.014 729.766 609.404 735.636 614.694 740.676L615.354 740.036L615.064 740.786L614.534 738.836C609.824 734.426 610.834 736.676 610.624 730.566L611.804 728.386C615.994 727.566 618.994 729.516 623.074 729.836C622.404 727.876 622.494 728.846 622.714 726.936C625.604 725.566 627.024 726.106 630.204 726.546C630.264 727.116 630.394 728.906 630.574 729.356Z" fill="url(#paint5_linear_198_25)"/>
<path d="M566.676 385.438C568.874 382.436 570.655 382.333 572.925 379.872C577.595 374.801 582.455 369.202 586.695 363.78C610.395 333.009 633.915 302.087 657.225 271.015C661.565 265.28 680.425 236.76 685.505 235.5C700.615 241.652 720.855 249.337 735.095 256.469C731.515 263.884 723.305 274.212 718.275 281.142L689.555 320.744C660.245 361.484 630.545 401.948 600.475 442.132C589.445 422.322 576.895 403.723 566.676 385.438Z" fill="#04A2F3"/>
<path d="M528.312 882.066C539.545 881.726 552.53 883.766 564.791 883.256C586.525 882.356 608.955 883.086 630.715 883.486C637.015 883.776 649.365 883.616 655.025 884.476C643.115 888.146 558.184 885.666 540.341 885.666C536.937 885.666 531.552 883.526 528.312 882.066Z" fill="#042CD6"/>
<defs>
<linearGradient id="paint0_linear_198_25" x1="389.817" y1="326.787" x2="329.303" y2="796.618" gradientUnits="userSpaceOnUse">
<stop stop-color="#009FED"/>
<stop offset="1" stop-color="#0159FF"/>
</linearGradient>
<linearGradient id="paint1_linear_198_25" x1="412.603" y1="-10.3646" x2="421.511" y2="219.818" gradientUnits="userSpaceOnUse">
<stop stop-color="#26FAEE"/>
<stop offset="1" stop-color="#03C6F1"/>
</linearGradient>
<linearGradient id="paint2_linear_198_25" x1="863.019" y1="238.138" x2="815.849" y2="182.71" gradientUnits="userSpaceOnUse">
<stop stop-color="#018DDE"/>
<stop offset="1" stop-color="#01A4E4"/>
</linearGradient>
<linearGradient id="paint3_linear_198_25" x1="397.659" y1="113.78" x2="406.867" y2="384.87" gradientUnits="userSpaceOnUse">
<stop stop-color="#1EF1E3"/>
<stop offset="1" stop-color="#07CFF9"/>
</linearGradient>
<linearGradient id="paint4_linear_198_25" x1="582.713" y1="1005.9" x2="598.534" y2="739.596" gradientUnits="userSpaceOnUse">
<stop stop-color="#0130F0"/>
<stop offset="1" stop-color="#0150FA"/>
</linearGradient>
<linearGradient id="paint5_linear_198_25" x1="623.39" y1="886.863" x2="636.017" y2="697.068" gradientUnits="userSpaceOnUse">
<stop stop-color="#012EF0"/>
<stop offset="1" stop-color="#015BFF"/>
</linearGradient>
</defs>
</svg>
